<mxfile host="app.diagrams.net" modified="2023-03-01T14:16:09.528Z" agent="5.0 (Windows NT 10.0; Win64; x64) AppleWebKit/537.36 (KHTML, like Gecko) Chrome/110.0.0.0 Safari/537.36" etag="r7-CtrYRqrcMGqHI2bCv" version="20.8.23" type="github">
  <diagram id="C5RBs43oDa-KdzZeNtuy" name="Page-1">
    <mxGraphModel dx="1434" dy="796" grid="1" gridSize="10" guides="1" tooltips="1" connect="1" arrows="1" fold="1" page="1" pageScale="1" pageWidth="827" pageHeight="1169" math="0" shadow="0">
      <root>
        <mxCell id="WIyWlLk6GJQsqaUBKTNV-0" />
        <mxCell id="WIyWlLk6GJQsqaUBKTNV-1" parent="WIyWlLk6GJQsqaUBKTNV-0" />
        <mxCell id="qeZH1gfwUaSzNCDPqtcJ-2" style="edgeStyle=orthogonalEdgeStyle;rounded=0;orthogonalLoop=1;jettySize=auto;html=1;" edge="1" parent="WIyWlLk6GJQsqaUBKTNV-1" source="qeZH1gfwUaSzNCDPqtcJ-0" target="qeZH1gfwUaSzNCDPqtcJ-3">
          <mxGeometry relative="1" as="geometry">
            <mxPoint x="430" y="350" as="targetPoint" />
          </mxGeometry>
        </mxCell>
        <mxCell id="qeZH1gfwUaSzNCDPqtcJ-0" value="" style="ellipse;whiteSpace=wrap;html=1;" vertex="1" parent="WIyWlLk6GJQsqaUBKTNV-1">
          <mxGeometry x="370" y="130" width="120" height="80" as="geometry" />
        </mxCell>
        <mxCell id="qeZH1gfwUaSzNCDPqtcJ-1" value="start" style="text;html=1;strokeColor=none;fillColor=none;align=center;verticalAlign=middle;whiteSpace=wrap;rounded=0;" vertex="1" parent="WIyWlLk6GJQsqaUBKTNV-1">
          <mxGeometry x="400" y="155" width="60" height="30" as="geometry" />
        </mxCell>
        <mxCell id="qeZH1gfwUaSzNCDPqtcJ-8" value="" style="edgeStyle=orthogonalEdgeStyle;rounded=0;orthogonalLoop=1;jettySize=auto;html=1;" edge="1" parent="WIyWlLk6GJQsqaUBKTNV-1" source="qeZH1gfwUaSzNCDPqtcJ-3" target="qeZH1gfwUaSzNCDPqtcJ-5">
          <mxGeometry relative="1" as="geometry" />
        </mxCell>
        <mxCell id="qeZH1gfwUaSzNCDPqtcJ-3" value="" style="rounded=0;whiteSpace=wrap;html=1;" vertex="1" parent="WIyWlLk6GJQsqaUBKTNV-1">
          <mxGeometry x="370" y="320" width="120" height="60" as="geometry" />
        </mxCell>
        <mxCell id="qeZH1gfwUaSzNCDPqtcJ-9" style="edgeStyle=orthogonalEdgeStyle;rounded=0;orthogonalLoop=1;jettySize=auto;html=1;entryX=0;entryY=0;entryDx=0;entryDy=0;" edge="1" parent="WIyWlLk6GJQsqaUBKTNV-1" source="qeZH1gfwUaSzNCDPqtcJ-4" target="qeZH1gfwUaSzNCDPqtcJ-5">
          <mxGeometry relative="1" as="geometry" />
        </mxCell>
        <mxCell id="qeZH1gfwUaSzNCDPqtcJ-4" value="" style="rounded=0;whiteSpace=wrap;html=1;" vertex="1" parent="WIyWlLk6GJQsqaUBKTNV-1">
          <mxGeometry x="180" y="400" width="120" height="60" as="geometry" />
        </mxCell>
        <mxCell id="qeZH1gfwUaSzNCDPqtcJ-10" style="edgeStyle=orthogonalEdgeStyle;rounded=0;orthogonalLoop=1;jettySize=auto;html=1;" edge="1" parent="WIyWlLk6GJQsqaUBKTNV-1" source="qeZH1gfwUaSzNCDPqtcJ-5">
          <mxGeometry relative="1" as="geometry">
            <mxPoint x="220" y="470" as="targetPoint" />
          </mxGeometry>
        </mxCell>
        <mxCell id="qeZH1gfwUaSzNCDPqtcJ-11" style="edgeStyle=orthogonalEdgeStyle;rounded=0;orthogonalLoop=1;jettySize=auto;html=1;entryX=-0.017;entryY=0.65;entryDx=0;entryDy=0;entryPerimeter=0;" edge="1" parent="WIyWlLk6GJQsqaUBKTNV-1" source="qeZH1gfwUaSzNCDPqtcJ-5" target="qeZH1gfwUaSzNCDPqtcJ-6">
          <mxGeometry relative="1" as="geometry" />
        </mxCell>
        <mxCell id="qeZH1gfwUaSzNCDPqtcJ-5" value="" style="rhombus;whiteSpace=wrap;html=1;" vertex="1" parent="WIyWlLk6GJQsqaUBKTNV-1">
          <mxGeometry x="390" y="480" width="80" height="80" as="geometry" />
        </mxCell>
        <mxCell id="qeZH1gfwUaSzNCDPqtcJ-12" style="edgeStyle=orthogonalEdgeStyle;rounded=0;orthogonalLoop=1;jettySize=auto;html=1;entryX=0.35;entryY=-0.012;entryDx=0;entryDy=0;entryPerimeter=0;" edge="1" parent="WIyWlLk6GJQsqaUBKTNV-1" source="qeZH1gfwUaSzNCDPqtcJ-6" target="qeZH1gfwUaSzNCDPqtcJ-7">
          <mxGeometry relative="1" as="geometry" />
        </mxCell>
        <mxCell id="qeZH1gfwUaSzNCDPqtcJ-6" value="" style="rounded=0;whiteSpace=wrap;html=1;" vertex="1" parent="WIyWlLk6GJQsqaUBKTNV-1">
          <mxGeometry x="570" y="480" width="120" height="60" as="geometry" />
        </mxCell>
        <mxCell id="qeZH1gfwUaSzNCDPqtcJ-7" value="" style="ellipse;whiteSpace=wrap;html=1;" vertex="1" parent="WIyWlLk6GJQsqaUBKTNV-1">
          <mxGeometry x="590" y="600" width="120" height="80" as="geometry" />
        </mxCell>
        <mxCell id="qeZH1gfwUaSzNCDPqtcJ-13" value="pobierz a i=0&lt;br&gt;suma=0" style="text;html=1;strokeColor=none;fillColor=none;align=center;verticalAlign=middle;whiteSpace=wrap;rounded=0;" vertex="1" parent="WIyWlLk6GJQsqaUBKTNV-1">
          <mxGeometry x="400" y="330" width="70" height="35" as="geometry" />
        </mxCell>
        <mxCell id="qeZH1gfwUaSzNCDPqtcJ-14" value="suma=suma+a[i]" style="text;html=1;strokeColor=none;fillColor=none;align=center;verticalAlign=middle;whiteSpace=wrap;rounded=0;" vertex="1" parent="WIyWlLk6GJQsqaUBKTNV-1">
          <mxGeometry x="200" y="415" width="60" height="30" as="geometry" />
        </mxCell>
        <mxCell id="qeZH1gfwUaSzNCDPqtcJ-15" value="i&amp;lt;a.len" style="text;html=1;strokeColor=none;fillColor=none;align=center;verticalAlign=middle;whiteSpace=wrap;rounded=0;" vertex="1" parent="WIyWlLk6GJQsqaUBKTNV-1">
          <mxGeometry x="405" y="505" width="60" height="30" as="geometry" />
        </mxCell>
        <mxCell id="qeZH1gfwUaSzNCDPqtcJ-16" value="wyswietl sume" style="text;html=1;strokeColor=none;fillColor=none;align=center;verticalAlign=middle;whiteSpace=wrap;rounded=0;" vertex="1" parent="WIyWlLk6GJQsqaUBKTNV-1">
          <mxGeometry x="590" y="495" width="60" height="30" as="geometry" />
        </mxCell>
        <mxCell id="qeZH1gfwUaSzNCDPqtcJ-17" value="stop" style="text;html=1;strokeColor=none;fillColor=none;align=center;verticalAlign=middle;whiteSpace=wrap;rounded=0;" vertex="1" parent="WIyWlLk6GJQsqaUBKTNV-1">
          <mxGeometry x="610" y="625" width="60" height="30" as="geometry" />
        </mxCell>
      </root>
    </mxGraphModel>
  </diagram>
</mxfile>
